# xmcd
#
# Track frame offsets: 
#        150
#        21838
#        39100
#        54465
#        77094
#        94304
#        116002
#        138911
#        156784
#        175051
#        207681
#        232285
#        285487
#
# Disc length: 4202 seconds
#
# Revision: 0
# Processed by: cddbd v1.5.2PL0 Copyright (c) Steve Scherf et al.
# Submitted via: ExactAudioCopy v1.0b3
#
DISCID=b110680d
DTITLE=Peter Green Splinter Group - An Evening With PG SG
DYEAR=2003
DGENRE=Blues
TTITLE0=Hitch Hiking Woman
TTITLE1=Sweet Home Chicago
TTITLE2=Albatross
TTITLE3=Running After You
TTITLE4=Ain't Nothing Gonna Change It
TTITLE5=Shadow On My Door
TTITLE6=Must Be A Fool
TTITLE7=Cool Down
TTITLE8=Dangerous Man
TTITLE9=Real World
TTITLE10=The Green Manalishi
TTITLE11=Black Magic Woman
TTITLE12=Look On Yonder Wall
EXTD=
EXTT0=
EXTT1=
EXTT2=
EXTT3=
EXTT4=
EXTT5=
EXTT6=
EXTT7=
EXTT8=
EXTT9=
EXTT10=
EXTT11=
EXTT12=
PLAYORDER=
